<svg id="Layer_1" data-name="Layer 1" xmlns="http://www.w3.org/2000/svg" viewBox="0 0 638.37 325.58"><defs><style>.cls-1,.cls-2{fill:#ffffff;}.cls-1{fill-rule:evenodd;}</style></defs><title>Artboard 1</title><path class="cls-1" d="M57.16,134.5v52l5-1,1-39,4,4,22,16v14h4v-17l-2-3Z"/><path class="cls-2" d="M619.16,80.5c4.26-10.2,24.15-61.19,5-68-18.89-6.72-42.14,41.58-48,53-14.39,28.06-30.06,65.11-42,99-12.08,34.28-13.21,62.66-34,89-8.28,10.49-25.76,35.32-44,31h-2c-19.46-32.37,9.83-64.12,24-82,30.88-38.95,56.32-80.08,80-127,8.22-16.28,22-39.89,16-63-4-2.34-7.68-3.25-15-3-41.7,26.57-72.55,79-92,127-21,51.87-21.25,112.29-67,139,1.48-26.42,22-67.58,34-87l-1-2c-52.73-15-99.55,10-123,45-14.35,21.4-21.2,42.05-43,56l-2-1c11.22-78.11,52.16-89.17,84-141,5.72-9.31,23.84-46.73,6-56-20.76-8.09-41,16-49,26-20.78,25.85-70.93,106.48-96,119l-2,2h-1c3-32.21,17.66-58.88,28-86,3.13-8.21,13.36-25,8-34-1.81-3.15-2.8-3.38-6-5l-6,1c-11.22,5.67-36.36,85.84-41,104-3.5,13.7-5.77,38.84,7,43,19.18,6.24,42-25.08,49-34,22.71-29.07,65.51-101.1,95-117h1c-1.39,31.91-33.42,52.15-49,72-13.76,17.54-28.09,37.14-37,59-6.33,15.53-16.66,56-1,68,18.54,3.47,39.22-14.26,45-27l3-2c17.72,62,60.61,16,83-3-.05,7.47.9,11.39,3,16,21,4.2,40-15.75,46-30l2-1c-.18,18.33,4.53,25.23,12,35,24.77,5.88,54.92-22.35,63-40l2-1c.26,14.9,4.66,28,13,35,34.86,6.51,54.34-28.2,77-39l1-2c-14.6,5.81-56.64,44.17-74,35-9.48-5.93-10.7-22-10-38C562.08,202.37,594.82,138.75,619.16,80.5Zm0-60c11.83,9-5.22,50.33-9,59-16.6,38.06-57.71,119.89-86,144v2h-1C531.77,170.22,583.22,45.47,619.16,20.5Zm-60,3h3c-.68,39.92-76.1,154.93-101,174C472.14,127,512.83,60.63,559.16,23.5Zm-221,269c-8.54.26-12.44-1.3-15-7-7.49-9.31-1.25-30.81,2-39,13.44-33.89,35.7-34.45,70-48h15C396.72,233.47,374.12,279.6,338.16,292.5Z"/><path class="cls-1" d="M57.16,45.5l29,23-1,14-4-4-24-17Z"/><path class="cls-1" d="M129.16,185.5c-38.36,2.33-71.13,11.72-115,12,2.05,12.95,9.35,24.13,15,34,27.59,48.21,40.68,41.66,89,19v1l-2,3c-51,23.44-69.79,26.61-96-25-5.12-10.09-18.1-26.8-11-39l15-1c-.27-13-2.39-33.57,2-43l23-17v58h4v-66l-6,4,1-64,4,4,44,34v80h4v-66l16,12v51l20-1,2,2c23.72,37.53-58.34,69.09-91,55C81.76,231.22,130.24,223.9,129.16,185.5Z"/><path class="cls-1" d="M227.16,86.5l7,1,7,7,1,6c-5.74,11-19.26,14.62-26,26-31,52.35-46.1,119-96,152-25.4,16.82-70.28,12-88-9C175.27,308.88,150,136.25,227.16,86.5Z"/><path class="cls-1" d="M108.16,291.5l10,1,7,6-1,9-6,7-10-1-7-5v-7C102.49,295.64,104.64,294.8,108.16,291.5Z"/><path class="cls-1" d="M60.16,294.5l10,2c3,4.19,4.68,5.48,5,13l-4,7c-3.85,1.22-8.51,3-13,1l-7-7c-1.39-5.65.47-8.9,3-13Z"/></svg>