<?xml version="1.0" encoding="utf-8"?>
<!-- Generator: Adobe Illustrator 20.1.0, SVG Export Plug-In . SVG Version: 6.00 Build 0)  -->
<svg version="1.1" id="Layer_1" xmlns="http://www.w3.org/2000/svg" xmlns:xlink="http://www.w3.org/1999/xlink" x="0px" y="0px"
	 viewBox="0 0 325.6 325.6" style="enable-background:new 0 0 325.6 325.6;" xml:space="preserve">
<style type="text/css">
	.st0{fill-rule:evenodd;clip-rule:evenodd;fill:#BE2026;}
</style>
<path class="st0" d="M81,110.9c0,18,0,35.9,0,53.9c2-0.3,4-0.7,6-1c0.4-13.5,0.8-26.9,1.2-40.4c1.6,1.4,3.2,2.8,4.8,4.1
	c8.9,5.5,17.7,11.1,26.6,16.6c0,4.8,0,9.7,0,14.5c1.6,0,3.2,0,4.8,0c0-5.9,0-11.7,0-17.6c-0.8-1-1.6-2.1-2.4-3.1
	C108.4,128.8,94.7,119.8,81,110.9z"/>
<path class="st0" d="M81,18.6c11.7,7.9,23.4,15.9,35.1,23.8c-0.4,4.8-0.8,9.7-1.2,14.5c-1.6-1.4-3.2-2.8-4.8-4.1
	c-9.7-5.9-19.3-11.7-29-17.6C81,29.7,81,24.1,81,18.6z"/>
<path class="st0" d="M168,163.7c-46.4,2.4-86,12.1-139,12.4c2.5,13.4,11.3,25,18.1,35.2c33.4,50,49.2,43.2,107.6,19.7
	c0,0.3,0,0.7,0,1c-0.8,1-1.6,2.1-2.4,3.1c-61.6,24.3-84.4,27.6-116.1-25.9c-6.2-10.5-21.9-27.8-13.3-40.4c6-0.3,12.1-0.7,18.1-1
	c-0.3-13.4-2.9-34.8,2.4-44.6c9.3-5.9,18.5-11.7,27.8-17.6c0,20,0,40.1,0,60.1c1.6,0,3.2,0,4.8,0c0-22.8,0-45.6,0-68.4
	c-2.4,1.4-4.8,2.8-7.3,4.1c0.4-22.1,0.8-44.2,1.2-66.3c1.6,1.4,3.2,2.8,4.8,4.1c17.7,11.7,35.5,23.5,53.2,35.2c0,27.6,0,55.3,0,82.9
	c1.6,0,3.2,0,4.8,0c0-22.8,0-45.6,0-68.4c6.4,4.1,12.9,8.3,19.3,12.4c0,17.6,0,35.2,0,52.9c8.1-0.3,16.1-0.7,24.2-1
	c0.8,0.7,1.6,1.4,2.4,2.1c28.7,38.9-70.5,71.6-110,57C110.7,211.1,169.3,203.5,168,163.7z"/>
<path class="st0" d="M286.5,61.1c2.8,0.3,5.6,0.7,8.5,1c2.8,2.4,5.6,4.8,8.5,7.3c0.4,2.1,0.8,4.1,1.2,6.2
	c-6.9,11.4-23.3,15.2-31.4,26.9c-37.5,54.3-55.7,123.3-116.1,157.5c-30.7,17.4-85,12.4-106.4-9.3
	C223.8,291.6,193.3,112.7,286.5,61.1z"/>
<path class="st0" d="M142.6,273.6c4,0.3,8.1,0.7,12.1,1c2.8,2.1,5.6,4.1,8.5,6.2c-0.4,3.1-0.8,6.2-1.2,9.3c-2.4,2.4-4.8,4.8-7.3,7.3
	c-4-0.3-8.1-0.7-12.1-1c-2.8-1.7-5.6-3.5-8.5-5.2c0-2.4,0-4.8,0-7.3C135.8,277.9,138.4,277,142.6,273.6z"/>
<path class="st0" d="M84.6,276.7c4,0.7,8.1,1.4,12.1,2.1c3.7,4.3,5.7,5.7,6,13.5c-1.6,2.4-3.2,4.8-4.8,7.3c-4.7,1.3-10.3,3.1-15.7,1
	c-2.8-2.4-5.6-4.8-8.5-7.3c-1.7-5.9,0.6-9.2,3.6-13.5C79.8,278.8,82.2,277.7,84.6,276.7z"/>
</svg>
